{
  "accessors": [
    {
      "bufferView": 2,
      "componentType": 5126,
      "count": 37658,
      "max": [
        0.3389985263347626,
        0.0029544245917350054,
        0.32549968361854553
      ],
      "min": [
        -0.33199968934059143,
        -0.0029544245917350054,
        -0.3304997384548187
      ],
      "type": "VEC3"
    },
    {
      "bufferView": 2,
      "byteOffset": 451896,
      "componentType": 5126,
      "count": 37658,
      "max": [
        0.9999998807907104,
        0.9852045774459839,
        1.0
      ],
      "min": [
        -0.9999998807907104,
        -0.9852045774459839,
        -1.0
      ],
      "type": "VEC3"
    },
    {
      "bufferView": 1,
      "componentType": 5126,
      "count": 37658,
      "max": [
        1.0,
        1.0
      ],
      "min": [
        0.0,
        0.0
      ],
      "type": "VEC2"
    },
    {
      "bufferView": 0,
      "componentType": 5125,
      "count": 213948,
      "type": "SCALAR"
    },
    {
      "bufferView": 2,
      "byteOffset": 903792,
      "componentType": 5126,
      "count": 37658,
      "max": [
        0.3389985263347626,
        0.0029544245917350054,
        0.32549968361854553
      ],
      "min": [
        -0.33199968934059143,
        -0.0029544245917350054,
        -0.3304997384548187
      ],
      "type": "VEC3"
    },
    {
      "bufferView": 2,
      "byteOffset": 1355688,
      "componentType": 5126,
      "count": 37658,
      "max": [
        0.9999998807907104,
        0.9852045774459839,
        1.0
      ],
      "min": [
        -0.9999998807907104,
        -0.9852045774459839,
        -1.0
      ],
      "type": "VEC3"
    },
    {
      "bufferView": 1,
      "byteOffset": 301264,
      "componentType": 5126,
      "count": 37658,
      "max": [
        1.0,
        1.0
      ],
      "min": [
        0.0,
        0.0
      ],
      "type": "VEC2"
    },
    {
      "bufferView": 0,
      "byteOffset": 855792,
      "componentType": 5125,
      "count": 213948,
      "type": "SCALAR"
    },
    {
      "bufferView": 2,
      "byteOffset": 1807584,
      "componentType": 5126,
      "count": 37658,
      "max": [
        0.3389985263347626,
        0.0029544245917350054,
        0.32549968361854553
      ],
      "min": [
        -0.33199968934059143,
        -0.0029544245917350054,
        -0.3304997384548187
      ],
      "type": "VEC3"
    },
    {
      "bufferView": 2,
      "byteOffset": 2259480,
      "componentType": 5126,
      "count": 37658,
      "max": [
        0.9999998807907104,
        0.9852045774459839,
        1.0
      ],
      "min": [
        -0.9999998807907104,
        -0.9852045774459839,
        -1.0
      ],
      "type": "VEC3"
    },
    {
      "bufferView": 1,
      "byteOffset": 602528,
      "componentType": 5126,
      "count": 37658,
      "max": [
        1.0,
        1.0
      ],
      "min": [
        0.0,
        0.0
      ],
      "type": "VEC2"
    },
    {
      "bufferView": 0,
      "byteOffset": 1711584,
      "componentType": 5125,
      "count": 213948,
      "type": "SCALAR"
    },
    {
      "bufferView": 2,
      "byteOffset": 2711376,
      "componentType": 5126,
      "count": 37658,
      "max": [
        0.3389985263347626,
        0.0029544245917350054,
        0.32549968361854553
      ],
      "min": [
        -0.33199968934059143,
        -0.0029544245917350054,
        -0.3304997384548187
      ],
      "type": "VEC3"
    },
    {
      "bufferView": 2,
      "byteOffset": 3163272,
      "componentType": 5126,
      "count": 37658,
      "max": [
        0.9999998807907104,
        0.9852045774459839,
        1.0
      ],
      "min": [
        -0.9999998807907104,
        -0.9852045774459839,
        -1.0
      ],
      "type": "VEC3"
    },
    {
      "bufferView": 1,
      "byteOffset": 903792,
      "componentType": 5126,
      "count": 37658,
      "max": [
        1.0,
        1.0
      ],
      "min": [
        0.0,
        0.0
      ],
      "type": "VEC2"
    },
    {
      "bufferView": 0,
      "byteOffset": 2567376,
      "componentType": 5125,
      "count": 213948,
      "type": "SCALAR"
    },
    {
      "bufferView": 2,
      "byteOffset": 3615168,
      "componentType": 5126,
      "count": 37658,
      "max": [
        0.3389985263347626,
        0.0029544245917350054,
        0.32549968361854553
      ],
      "min": [
        -0.33199968934059143,
        -0.0029544245917350054,
        -0.3304997384548187
      ],
      "type": "VEC3"
    },
    {
      "bufferView": 2,
      "byteOffset": 4067064,
      "componentType": 5126,
      "count": 37658,
      "max": [
        0.9999998807907104,
        0.9852045774459839,
        1.0
      ],
      "min": [
        -0.9999998807907104,
        -0.9852045774459839,
        -1.0
      ],
      "type": "VEC3"
    },
    {
      "bufferView": 1,
      "byteOffset": 1205056,
      "componentType": 5126,
      "count": 37658,
      "max": [
        1.0,
        1.0
      ],
      "min": [
        0.0,
        0.0
      ],
      "type": "VEC2"
    },
    {
      "bufferView": 0,
      "byteOffset": 3423168,
      "componentType": 5125,
      "count": 213948,
      "type": "SCALAR"
    },
    {
      "bufferView": 2,
      "byteOffset": 4518960,
      "componentType": 5126,
      "count": 37658,
      "max": [
        0.3389985263347626,
        0.0029544245917350054,
        0.32549968361854553
      ],
      "min": [
        -0.33199968934059143,
        -0.0029544245917350054,
        -0.3304997384548187
      ],
      "type": "VEC3"
    },
    {
      "bufferView": 2,
      "byteOffset": 4970856,
      "componentType": 5126,
      "count": 37658,
      "max": [
        0.9999998807907104,
        0.9852045774459839,
        1.0
      ],
      "min": [
        -0.9999998807907104,
        -0.9852045774459839,
        -1.0
      ],
      "type": "VEC3"
    },
    {
      "bufferView": 1,
      "byteOffset": 1506320,
      "componentType": 5126,
      "count": 37658,
      "max": [
        1.0,
        1.0
      ],
      "min": [
        0.0,
        0.0
      ],
      "type": "VEC2"
    },
    {
      "bufferView": 0,
      "byteOffset": 4278960,
      "componentType": 5125,
      "count": 213948,
      "type": "SCALAR"
    },
    {
      "bufferView": 2,
      "byteOffset": 5422752,
      "componentType": 5126,
      "count": 37658,
      "max": [
        0.3389985263347626,
        0.0029544245917350054,
        0.32549968361854553
      ],
      "min": [
        -0.33199968934059143,
        -0.0029544245917350054,
        -0.3304997384548187
      ],
      "type": "VEC3"
    },
    {
      "bufferView": 2,
      "byteOffset": 5874648,
      "componentType": 5126,
      "count": 37658,
      "max": [
        0.9999998807907104,
        0.9852045774459839,
        1.0
      ],
      "min": [
        -0.9999998807907104,
        -0.9852045774459839,
        -1.0
      ],
      "type": "VEC3"
    },
    {
      "bufferView": 1,
      "byteOffset": 1807584,
      "componentType": 5126,
      "count": 37658,
      "max": [
        1.0,
        1.0
      ],
      "min": [
        0.0,
        0.0
      ],
      "type": "VEC2"
    },
    {
      "bufferView": 0,
      "byteOffset": 5134752,
      "componentType": 5125,
      "count": 213948,
      "type": "SCALAR"
    },
    {
      "bufferView": 2,
      "byteOffset": 6326544,
      "componentType": 5126,
      "count": 37658,
      "max": [
        0.3389985263347626,
        0.0029544245917350054,
        0.32549968361854553
      ],
      "min": [
        -0.33199968934059143,
        -0.0029544245917350054,
        -0.3304997384548187
      ],
      "type": "VEC3"
    },
    {
      "bufferView": 2,
      "byteOffset": 6778440,
      "componentType": 5126,
      "count": 37658,
      "max": [
        0.9999998807907104,
        0.9852045774459839,
        1.0
      ],
      "min": [
        -0.9999998807907104,
        -0.9852045774459839,
        -1.0
      ],
      "type": "VEC3"
    },
    {
      "bufferView": 1,
      "byteOffset": 2108848,
      "componentType": 5126,
      "count": 37658,
      "max": [
        1.0,
        1.0
      ],
      "min": [
        0.0,
        0.0
      ],
      "type": "VEC2"
    },
    {
      "bufferView": 0,
      "byteOffset": 5990544,
      "componentType": 5125,
      "count": 213948,
      "type": "SCALAR"
    },
    {
      "bufferView": 3,
      "componentType": 5126,
      "count": 1000,
      "max": [
        16.66666603088379
      ],
      "min": [
        0.01666666753590107
      ],
      "type": "SCALAR"
    },
    {
      "bufferView": 4,
      "componentType": 5126,
      "count": 1000,
      "max": [
        0.0,
        0.9999988079071045,
        -0.0,
        1.0
      ],
      "min": [
        0.0,
        -0.9999394416809082,
        -0.0,
        -0.007861814461648464
      ],
      "type": "VEC4"
    },
    {
      "bufferView": 3,
      "byteOffset": 4000,
      "componentType": 5126,
      "count": 1000,
      "max": [
        16.66666603088379
      ],
      "min": [
        0.01666666753590107
      ],
      "type": "SCALAR"
    },
    {
      "bufferView": 4,
      "byteOffset": 16000,
      "componentType": 5126,
      "count": 1000,
      "max": [
        0.0,
        0.9999988079071045,
        -0.0,
        1.0
      ],
      "min": [
        0.0,
        -0.9999394416809082,
        -0.0,
        -0.007861814461648464
      ],
      "type": "VEC4"
    },
    {
      "bufferView": 3,
      "byteOffset": 8000,
      "componentType": 5126,
      "count": 1000,
      "max": [
        16.66666603088379
      ],
      "min": [
        0.01666666753590107
      ],
      "type": "SCALAR"
    },
    {
      "bufferView": 4,
      "byteOffset": 32000,
      "componentType": 5126,
      "count": 1000,
      "max": [
        0.0,
        0.9999889135360718,
        -0.0,
        1.0
      ],
      "min": [
        0.0,
        -0.9998999238014221,
        -0.0,
        -0.004717343952506781
      ],
      "type": "VEC4"
    },
    {
      "bufferView": 3,
      "byteOffset": 12000,
      "componentType": 5126,
      "count": 1000,
      "max": [
        16.66666603088379
      ],
      "min": [
        0.01666666753590107
      ],
      "type": "SCALAR"
    },
    {
      "bufferView": 4,
      "byteOffset": 48000,
      "componentType": 5126,
      "count": 1000,
      "max": [
        0.0,
        0.9999988079071045,
        -0.0,
        1.0
      ],
      "min": [
        0.0,
        -0.9999394416809082,
        -0.0,
        -0.007861870341002941
      ],
      "type": "VEC4"
    },
    {
      "bufferView": 3,
      "byteOffset": 16000,
      "componentType": 5126,
      "count": 1000,
      "max": [
        16.66666603088379
      ],
      "min": [
        0.01666666753590107
      ],
      "type": "SCALAR"
    },
    {
      "bufferView": 4,
      "byteOffset": 64000,
      "componentType": 5126,
      "count": 1000,
      "max": [
        0.0,
        0.9999988079071045,
        -0.0,
        1.0
      ],
      "min": [
        0.0,
        -0.9999394416809082,
        -0.0,
        -0.007861394435167313
      ],
      "type": "VEC4"
    },
    {
      "bufferView": 3,
      "byteOffset": 20000,
      "componentType": 5126,
      "count": 1000,
      "max": [
        16.66666603088379
      ],
      "min": [
        0.01666666753590107
      ],
      "type": "SCALAR"
    },
    {
      "bufferView": 4,
      "byteOffset": 80000,
      "componentType": 5126,
      "count": 1000,
      "max": [
        0.0,
        0.9999889135360718,
        -0.0,
        1.0
      ],
      "min": [
        0.0,
        -0.9998999238014221,
        -0.0,
        -0.004718170966953039
      ],
      "type": "VEC4"
    },
    {
      "bufferView": 3,
      "byteOffset": 24000,
      "componentType": 5126,
      "count": 1000,
      "max": [
        16.66666603088379
      ],
      "min": [
        0.01666666753590107
      ],
      "type": "SCALAR"
    },
    {
      "bufferView": 4,
      "byteOffset": 96000,
      "componentType": 5126,
      "count": 1000,
      "max": [
        0.0,
        0.9999988079071045,
        -0.0,
        1.0
      ],
      "min": [
        0.0,
        -0.9999394416809082,
        -0.0,
        -0.007860790006816387
      ],
      "type": "VEC4"
    },
    {
      "bufferView": 3,
      "byteOffset": 28000,
      "componentType": 5126,
      "count": 1000,
      "max": [
        16.66666603088379
      ],
      "min": [
        0.01666666753590107
      ],
      "type": "SCALAR"
    },
    {
      "bufferView": 4,
      "byteOffset": 112000,
      "componentType": 5126,
      "count": 1000,
      "max": [
        0.0,
        0.9999988079071045,
        -0.0,
        1.0
      ],
      "min": [
        0.0,
        -0.9999394416809082,
        -0.0,
        -0.007862696424126625
      ],
      "type": "VEC4"
    }
  ],
  "animations": [
    {
      "channels": [
        {
          "sampler": 0,
          "target": {
            "node": 3,
            "path": "rotation"
          }
        },
        {
          "sampler": 1,
          "target": {
            "node": 5,
            "path": "rotation"
          }
        },
        {
          "sampler": 2,
          "target": {
            "node": 7,
            "path": "rotation"
          }
        },
        {
          "sampler": 3,
          "target": {
            "node": 9,
            "path": "rotation"
          }
        },
        {
          "sampler": 4,
          "target": {
            "node": 11,
            "path": "rotation"
          }
        },
        {
          "sampler": 5,
          "target": {
            "node": 13,
            "path": "rotation"
          }
        },
        {
          "sampler": 6,
          "target": {
            "node": 15,
            "path": "rotation"
          }
        },
        {
          "sampler": 7,
          "target": {
            "node": 17,
            "path": "rotation"
          }
        }
      ],
      "name": "Animation",
      "samplers": [
        {
          "input": 32,
          "interpolation": "LINEAR",
          "output": 33
        },
        {
          "input": 34,
          "interpolation": "LINEAR",
          "output": 35
        },
        {
          "input": 36,
          "interpolation": "LINEAR",
          "output": 37
        },
        {
          "input": 38,
          "interpolation": "LINEAR",
          "output": 39
        },
        {
          "input": 40,
          "interpolation": "LINEAR",
          "output": 41
        },
        {
          "input": 42,
          "interpolation": "LINEAR",
          "output": 43
        },
        {
          "input": 44,
          "interpolation": "LINEAR",
          "output": 45
        },
        {
          "input": 46,
          "interpolation": "LINEAR",
          "output": 47
        }
      ]
    }
  ],
  "asset": {
    "extras": {
      "author": "Tycho Magnetic Anomaly (https://sketchfab.com/Tycho_Magnetic_Anomaly)",
      "license": "CC-BY-4.0 (http://creativecommons.org/licenses/by/4.0/)",
      "source": "https://sketchfab.com/3d-models/chromatic-spirals-9b6375689e9540d0a794652b46ed1322",
      "title": "Chromatic Spirals"
    },
    "generator": "Sketchfab-12.6.0",
    "version": "2.0"
  },
  "bufferViews": [
    {
      "buffer": 0,
      "byteLength": 6846336,
      "name": "floatBufferViews",
      "target": 34963
    },
    {
      "buffer": 0,
      "byteLength": 2410112,
      "byteOffset": 6846336,
      "byteStride": 8,
      "name": "floatBufferViews",
      "target": 34962
    },
    {
      "buffer": 0,
      "byteLength": 7230336,
      "byteOffset": 9256448,
      "byteStride": 12,
      "name": "floatBufferViews",
      "target": 34962
    },
    {
      "buffer": 0,
      "byteLength": 32000,
      "byteOffset": 16486784,
      "name": "floatBufferViews"
    },
    {
      "buffer": 0,
      "byteLength": 128000,
      "byteOffset": 16518784,
      "byteStride": 16,
      "name": "floatBufferViews"
    }
  ],
  "buffers": [
    {
      "byteLength": 16646784,
      "uri": "scene.bin"
    }
  ],
  "extensionsUsed": [
    "KHR_texture_transform",
    "KHR_materials_clearcoat"
  ],
  "images": [
    {
      "uri": "textures/material_baseColor.jpeg"
    }
  ],
  "materials": [
    {
      "alphaMode": "BLEND",
      "doubleSided": true,
      "extensions": {
        "KHR_materials_clearcoat": {
          "clearcoatFactor": 0.7868716308817624,
          "clearcoatRoughnessFactor": 0.11483284105404298
        }
      },
      "name": "material",
      "pbrMetallicRoughness": {
        "baseColorFactor": [
          1.0,
          1.0,
          1.0,
          0.3095356680134757
        ],
        "baseColorTexture": {
          "extensions": {
            "KHR_texture_transform": {
              "rotation": 1.8284054875993139,
              "scale": [
                5.22888474206861,
                5.22888474206861
              ]
            }
          },
          "index": 0
        },
        "roughnessFactor": 0.2969741953064155
      }
    }
  ],
  "meshes": [
    {
      "name": "Object_0",
      "primitives": [
        {
          "attributes": {
            "NORMAL": 1,
            "POSITION": 0,
            "TEXCOORD_0": 2
          },
          "indices": 3,
          "material": 0,
          "mode": 4
        }
      ]
    },
    {
      "name": "Object_1",
      "primitives": [
        {
          "attributes": {
            "NORMAL": 5,
            "POSITION": 4,
            "TEXCOORD_0": 6
          },
          "indices": 7,
          "material": 0,
          "mode": 4
        }
      ]
    },
    {
      "name": "Object_2",
      "primitives": [
        {
          "attributes": {
            "NORMAL": 9,
            "POSITION": 8,
            "TEXCOORD_0": 10
          },
          "indices": 11,
          "material": 0,
          "mode": 4
        }
      ]
    },
    {
      "name": "Object_3",
      "primitives": [
        {
          "attributes": {
            "NORMAL": 13,
            "POSITION": 12,
            "TEXCOORD_0": 14
          },
          "indices": 15,
          "material": 0,
          "mode": 4
        }
      ]
    },
    {
      "name": "Object_4",
      "primitives": [
        {
          "attributes": {
            "NORMAL": 17,
            "POSITION": 16,
            "TEXCOORD_0": 18
          },
          "indices": 19,
          "material": 0,
          "mode": 4
        }
      ]
    },
    {
      "name": "Object_5",
      "primitives": [
        {
          "attributes": {
            "NORMAL": 21,
            "POSITION": 20,
            "TEXCOORD_0": 22
          },
          "indices": 23,
          "material": 0,
          "mode": 4
        }
      ]
    },
    {
      "name": "Object_6",
      "primitives": [
        {
          "attributes": {
            "NORMAL": 25,
            "POSITION": 24,
            "TEXCOORD_0": 26
          },
          "indices": 27,
          "material": 0,
          "mode": 4
        }
      ]
    },
    {
      "name": "Object_7",
      "primitives": [
        {
          "attributes": {
            "NORMAL": 29,
            "POSITION": 28,
            "TEXCOORD_0": 30
          },
          "indices": 31,
          "material": 0,
          "mode": 4
        }
      ]
    }
  ],
  "nodes": [
    {
      "children": [
        1
      ],
      "matrix": [
        1.0,
        0.0,
        0.0,
        0.0,
        0.0,
        2.220446049250313e-16,
        -1.0,
        0.0,
        0.0,
        1.0,
        2.220446049250313e-16,
        0.0,
        0.0,
        0.0,
        0.0,
        1.0
      ],
      "name": "Sketchfab_model"
    },
    {
      "children": [
        2
      ],
      "name": "root"
    },
    {
      "children": [
        3,
        5,
        7,
        9,
        11,
        13,
        15,
        17
      ],
      "matrix": [
        1.0,
        0.0,
        0.0,
        0.0,
        0.0,
        2.220446049250313e-16,
        1.0,
        0.0,
        0.0,
        -1.0,
        2.220446049250313e-16,
        0.0,
        0.0,
        0.0,
        0.0,
        1.0
      ],
      "name": "GLTF_SceneRootNode"
    },
    {
      "children": [
        4
      ],
      "name": "Spiral_0",
      "translation": [
        0.004000000189989805,
        0.0,
        -0.005000000353902578
      ]
    },
    {
      "mesh": 0,
      "name": "Object_4"
    },
    {
      "children": [
        6
      ],
      "name": "Spiral.001_1",
      "translation": [
        0.004000000189989805,
        -0.005805603694170713,
        -0.005000000353902578
      ]
    },
    {
      "mesh": 1,
      "name": "Object_6"
    },
    {
      "children": [
        8
      ],
      "name": "Spiral.002_2",
      "translation": [
        0.004000000189989805,
        -0.01177364680916071,
        -0.005000000353902578
      ]
    },
    {
      "mesh": 2,
      "name": "Object_8"
    },
    {
      "children": [
        10
      ],
      "name": "Spiral.003_3",
      "translation": [
        0.004000000189989805,
        -0.01762702874839306,
        -0.005000000353902578
      ]
    },
    {
      "mesh": 3,
      "name": "Object_10"
    },
    {
      "children": [
        12
      ],
      "name": "Spiral.004_4",
      "translation": [
        0.004000000189989805,
        -0.023474792018532753,
        -0.005000000353902578
      ]
    },
    {
      "mesh": 4,
      "name": "Object_12"
    },
    {
      "children": [
        14
      ],
      "name": "Spiral.005_5",
      "translation": [
        0.004000000189989805,
        -0.029322555288672447,
        -0.005000000353902578
      ]
    },
    {
      "mesh": 5,
      "name": "Object_14"
    },
    {
      "children": [
        16
      ],
      "name": "Spiral.006_6",
      "translation": [
        0.004000000189989805,
        -0.03515121340751648,
        -0.005000001285225153
      ]
    },
    {
      "mesh": 6,
      "name": "Object_16"
    },
    {
      "children": [
        18
      ],
      "name": "Spiral.007_7",
      "translation": [
        0.0033789139706641436,
        -0.04102764651179314,
        -0.005000002216547728
      ]
    },
    {
      "mesh": 7,
      "name": "Object_18"
    }
  ],
  "samplers": [
    {
      "magFilter": 9729,
      "minFilter": 9987,
      "wrapS": 10497,
      "wrapT": 10497
    }
  ],
  "scene": 0,
  "scenes": [
    {
      "name": "Sketchfab_Scene",
      "nodes": [
        0
      ]
    }
  ],
  "textures": [
    {
      "sampler": 0,
      "source": 0
    }
  ]
}
